<svg width="680" height="680" viewBox="0 0 680 680" xmlns="http://www.w3.org/2000/svg" role="img">
<title>AWS Multi-AZ 3-tier 아키텍처</title>
<desc>Route53부터 RDS까지 각 계층을 Multi-AZ로 이중화한 WEB/WAS/DB 3계층 구성</desc>
<defs>
<marker id="arrow" viewBox="0 0 10 10" refX="8" refY="5" markerWidth="6" markerHeight="6" orient="auto-start-reverse"><path d="M2 1L8 5L2 9" fill="none" stroke="#73726c" stroke-width="1.5" stroke-linecap="round" stroke-linejoin="round"/></marker>
</defs>

<rect x="0" y="0" width="680" height="680" rx="12" fill="#fafaf7"/>

<g>
<rect x="270" y="20" width="140" height="40" rx="8" fill="#F1EFE8" stroke="#5F5E5A" stroke-width="0.5"/>
<text x="340" y="40" text-anchor="middle" dominant-baseline="central" font-family="sans-serif" font-size="14" font-weight="500" fill="#444441">Client</text>
</g>
<line x1="340" y1="60" x2="340" y2="82" stroke="#73726c" stroke-width="1.5" marker-end="url(#arrow)"/>

<g>
<rect x="250" y="82" width="180" height="40" rx="8" fill="#E6F1FB" stroke="#185FA5" stroke-width="0.5"/>
<text x="340" y="102" text-anchor="middle" dominant-baseline="central" font-family="sans-serif" font-size="14" font-weight="500" fill="#0C447C">Route53 + CloudFront</text>
</g>
<line x1="340" y1="122" x2="340" y2="144" stroke="#73726c" stroke-width="1.5" marker-end="url(#arrow)"/>

<g>
<rect x="270" y="144" width="140" height="40" rx="8" fill="#FAEEDA" stroke="#854F0B" stroke-width="0.5"/>
<text x="340" y="164" text-anchor="middle" dominant-baseline="central" font-family="sans-serif" font-size="14" font-weight="500" fill="#633806">WAF</text>
</g>
<line x1="340" y1="184" x2="340" y2="206" stroke="#73726c" stroke-width="1.5" marker-end="url(#arrow)"/>

<g>
<rect x="240" y="206" width="200" height="44" rx="8" fill="#E6F1FB" stroke="#185FA5" stroke-width="0.5"/>
<text x="340" y="222" text-anchor="middle" dominant-baseline="central" font-family="sans-serif" font-size="14" font-weight="500" fill="#0C447C">ALB (Public)</text>
<text x="340" y="240" text-anchor="middle" dominant-baseline="central" font-family="sans-serif" font-size="12" fill="#185FA5">Multi-AZ</text>
</g>
<line x1="340" y1="250" x2="340" y2="272" stroke="#73726c" stroke-width="1.5" marker-end="url(#arrow)"/>

<g>
<rect x="80" y="272" width="520" height="76" rx="12" fill="#E1F5EE" stroke="#0F6E56" stroke-width="0.5"/>
<text x="340" y="292" text-anchor="middle" dominant-baseline="central" font-family="sans-serif" font-size="14" font-weight="500" fill="#085041">WEB — Auto Scaling Group</text>
<rect x="120" y="304" width="180" height="32" rx="6" fill="#ffffff" stroke="#0F6E56" stroke-width="0.5"/>
<text x="210" y="320" text-anchor="middle" dominant-baseline="central" font-family="sans-serif" font-size="12" fill="#0F6E56">AZ-A · WEB1</text>
<rect x="380" y="304" width="180" height="32" rx="6" fill="#ffffff" stroke="#0F6E56" stroke-width="0.5"/>
<text x="470" y="320" text-anchor="middle" dominant-baseline="central" font-family="sans-serif" font-size="12" fill="#0F6E56">AZ-B · WEB2</text>
</g>
<line x1="340" y1="348" x2="340" y2="370" stroke="#73726c" stroke-width="1.5" marker-end="url(#arrow)"/>

<g>
<rect x="240" y="370" width="200" height="44" rx="8" fill="#E6F1FB" stroke="#185FA5" stroke-width="0.5"/>
<text x="340" y="386" text-anchor="middle" dominant-baseline="central" font-family="sans-serif" font-size="14" font-weight="500" fill="#0C447C">ALB (Internal)</text>
<text x="340" y="404" text-anchor="middle" dominant-baseline="central" font-family="sans-serif" font-size="12" fill="#185FA5">Multi-AZ</text>
</g>
<line x1="340" y1="414" x2="340" y2="436" stroke="#73726c" stroke-width="1.5" marker-end="url(#arrow)"/>

<g>
<rect x="80" y="436" width="520" height="76" rx="12" fill="#E1F5EE" stroke="#0F6E56" stroke-width="0.5"/>
<text x="340" y="456" text-anchor="middle" dominant-baseline="central" font-family="sans-serif" font-size="14" font-weight="500" fill="#085041">WAS — Auto Scaling Group</text>
<rect x="120" y="468" width="180" height="32" rx="6" fill="#ffffff" stroke="#0F6E56" stroke-width="0.5"/>
<text x="210" y="484" text-anchor="middle" dominant-baseline="central" font-family="sans-serif" font-size="12" fill="#0F6E56">AZ-A · WAS1</text>
<rect x="380" y="468" width="180" height="32" rx="6" fill="#ffffff" stroke="#0F6E56" stroke-width="0.5"/>
<text x="470" y="484" text-anchor="middle" dominant-baseline="central" font-family="sans-serif" font-size="12" fill="#0F6E56">AZ-B · WAS2</text>
</g>
<line x1="340" y1="512" x2="340" y2="534" stroke="#73726c" stroke-width="1.5" marker-end="url(#arrow)"/>

<g>
<rect x="100" y="534" width="230" height="56" rx="8" fill="#EEEDFE" stroke="#534AB7" stroke-width="0.5"/>
<text x="215" y="554" text-anchor="middle" dominant-baseline="central" font-family="sans-serif" font-size="14" font-weight="500" fill="#3C3489">Redis (Cache)</text>
<text x="215" y="572" text-anchor="middle" dominant-baseline="central" font-family="sans-serif" font-size="12" fill="#534AB7">Multi-AZ</text>
</g>
<g>
<rect x="350" y="534" width="230" height="56" rx="8" fill="#EEEDFE" stroke="#534AB7" stroke-width="0.5"/>
<text x="465" y="554" text-anchor="middle" dominant-baseline="central" font-family="sans-serif" font-size="14" font-weight="500" fill="#3C3489">RDS</text>
<text x="465" y="572" text-anchor="middle" dominant-baseline="central" font-family="sans-serif" font-size="12" fill="#534AB7">Multi-AZ · Primary/Standby</text>
</g>

<text x="340" y="632" text-anchor="middle" font-family="sans-serif" font-size="12" fill="#5F5E5A">모든 계층이 AZ-A / AZ-B에 이중화 — 단일 AZ 장애에도 서비스 지속</text>
</svg>
